# xmcd
#
# Track frame offsets: 
#        150
#        26115
#        44007
#        63967
#        77137
#        88912
#        104662
#        117980
#        134270
#        150147
#        162355
#        176485
#        191440
#        208055
#        230262
#        250465
#
# Disc length: 3630 seconds
#
# Revision: 4
# Processed by: cddbd v1.5.2PL0 Copyright (c) Steve Scherf et al.
# Submitted via: ExactAudioCopyFreeDBPlugin 1.0
#
DISCID=db0e2c10
DTITLE=Various Artist - Blues (Pain Created To Heal Pain) Video OST
DYEAR=1990
DGENRE=Blues
TTITLE0=Louis Myers - Listen To The Blues
TTITLE1=Jack Owens - Hard Times
TTITLE2=David Honeyboy Edwards - 61 Highway
TTITLE3=James Son Thomas - Cairo
TTITLE4=James Son Thomas - Dust My Broom
TTITLE5=Johnny Billington - Sweet Little Angel
TTITLE6=Sam Carr - Rock Me Mama
TTITLE7=Bonnie Lee - Sad And Evil Woman
TTITLE8=Lester Davenport - Mad Dog On The Loose
TTITLE9=Wade Walton - Fourth Street Blues
TTITLE10=David Honeyboy Edwards - Shake Em On Down
TTITLE11=Sunnyland Slim - The Devil S A Busy Man
TTITLE12=Big Jack Johnson - Catfish Blues
TTITLE13=Jessie Mae Hemphill - Shame On You - I Feel It
TTITLE14=Louis Myers - Elevationist Woman In Town
TTITLE15=Eugene Powell - Old Lonesome Blues
EXTD=YEAR: 1990
EXTT0=
EXTT1=
EXTT2=
EXTT3=
EXTT4=
EXTT5=
EXTT6=
EXTT7=
EXTT8=
EXTT9=
EXTT10=
EXTT11=
EXTT12=
EXTT13=
EXTT14=
EXTT15=
PLAYORDER=
